<svg width="31" height="30" viewBox="0 0 31 30" fill="none" xmlns="http://www.w3.org/2000/svg">
<path d="M3 15L2.21913 14.3753L1.71938 15L2.21913 15.6247L3 15ZM14.25 16C14.8023 16 15.25 15.5523 15.25 15C15.25 14.4477 14.8023 14 14.25 14V16ZM7.21913 8.1253L2.21913 14.3753L3.78087 15.6247L8.78087 9.3747L7.21913 8.1253ZM2.21913 15.6247L7.21913 21.8747L8.78087 20.6253L3.78087 14.3753L2.21913 15.6247ZM3 16H14.25V14H3V16Z" fill="#33363F"/>
<path d="M13 10.1649V8.38851C13 6.77017 13 5.961 13.474 5.4015C13.9479 4.84201 14.7461 4.70899 16.3424 4.44293L21.0136 3.6644C24.2567 3.12388 25.8782 2.85363 26.9391 3.75232C28 4.65102 28 6.29493 28 9.58276V20.4172C28 23.7051 28 25.349 26.9391 26.2477C25.8782 27.1464 24.2567 26.8761 21.0136 26.3356L16.3424 25.5571C14.7461 25.291 13.9479 25.158 13.474 24.5985C13 24.039 13 23.2298 13 21.6115V20.0825" stroke="#33363F" stroke-width="2"/>
</svg>
